<svg xmlns="http://www.w3.org/2000/svg" viewBox="0 0 24 24" fill="none" stroke="#15b7e8" stroke-width="1.8" stroke-linecap="round" stroke-linejoin="round">
  <circle cx="12" cy="12" r="3"/>
  <path d="M19.4 15a1.65 1.65 0 0 0 .33 1.82l.06.06a2 2 0 1 1-2.83 2.83l-.06-.06A1.65 1.65 0 0 0 15 19.4a1.65 1.65 0 0 0-1 .6 1.65 1.65 0 0 0-.33 1.82V22a2 2 0 1 1-4 0v-.18a1.65 1.65 0 0 0-.33-1.82 1.65 1.65 0 0 0-1-.6 1.65 1.65 0 0 0-1.82.33l-.06.06a2 2 0 1 1-2.83-2.83l.06-.06A1.65 1.65 0 0 0 4.6 15a1.65 1.65 0 0 0-.6-1 1.65 1.65 0 0 0-1.82-.33H2a2 2 0 1 1 0-4h.18a1.65 1.65 0 0 0 1.82-.33 1.65 1.65 0 0 0 .6-1 1.65 1.65 0 0 0-.33-1.82l-.06-.06a2 2 0 1 1 2.83-2.83l.06.06A1.65 1.65 0 0 0 9 4.6a1.65 1.65 0 0 0 1-.6 1.65 1.65 0 0 0 .33-1.82V2a2 2 0 1 1 4 0v.18a1.65 1.65 0 0 0 .33 1.82 1.65 1.65 0 0 0 1 .6 1.65 1.65 0 0 0 1.82-.33l.06-.06a2 2 0 1 1 2.83 2.83l-.06.06A1.65 1.65 0 0 0 19.4 9c.23.3.4.65.6 1H22a2 2 0 1 1 0 4h-2c-.2.35-.37.7-.6 1z"/>
</svg>